<svg id="Capa_1" data-name="Capa 1" xmlns="http://www.w3.org/2000/svg" viewBox="0 0 761.3 720.2"><defs><style>.cls-1{fill:#fff;}</style></defs><title>1DAY</title><path class="cls-1" d="M374.76,310.5H359.1a2.25,2.25,0,0,0-2.38,2.38v94.44a2.25,2.25,0,0,0,2.38,2.38h15.66c10.68,0,17.56-4,20.88-11.39,3.09-6.88,3.32-24,3.32-38.21s-.23-31.32-3.32-38.21C392.32,314.54,385.44,310.5,374.76,310.5Z"/><path class="cls-1" d="M730.39,224.23v-.15a97,97,0,0,1-97-97h0a14,14,0,0,0-14-14H142.8a14,14,0,0,0-14,14h-.41a97,97,0,0,1-97,97v.14h0c-7.72,0-14,3.37-14,7.53V488.5c0,4.16,6.26,7.53,14,7.53h0v.09a97,97,0,0,1,97,97h.41a14,14,0,0,0,14,14H619.46a14,14,0,0,0,14-14h0a97,97,0,0,1,97-97V496c7.47-.15,13.44-3.45,13.44-7.52V233.62C743.82,229.5,737.86,224.46,730.39,224.23ZM197.74,438.41a4.77,4.77,0,0,1-4.75,4.75H169.5a4.77,4.77,0,0,1-4.75-4.75V324.5c0-3.08-3.08-3.32-4.51-1.89l-36.78,36.54a4.79,4.79,0,0,1-8.07-3.8V331.62c0-3.79.48-6.88,3.8-10.44l35.6-38.44a15.68,15.68,0,0,1,11.86-5.7H193a4.77,4.77,0,0,1,4.75,4.75ZM277,566a8.71,8.71,0,0,1-8.72,8.72h-2.11a8.72,8.72,0,0,1-8.72-8.72V502.57a8.73,8.73,0,0,1,8.72-8.72h2.11a8.72,8.72,0,0,1,8.72,8.72Zm0-116.21a8.72,8.72,0,0,1-8.72,8.72h-2.11a8.73,8.73,0,0,1-8.72-8.72V386.36a8.72,8.72,0,0,1,8.72-8.72h2.11a8.71,8.71,0,0,1,8.72,8.72Zm0-116.22a8.71,8.71,0,0,1-8.72,8.72h-2.11a8.72,8.72,0,0,1-8.72-8.72V270.14a8.72,8.72,0,0,1,8.72-8.71h2.11a8.71,8.71,0,0,1,8.72,8.71Zm0-116.21a8.71,8.71,0,0,1-8.72,8.72h-2.11a8.72,8.72,0,0,1-8.72-8.72V153.93a8.73,8.73,0,0,1,8.72-8.72h2.11a8.72,8.72,0,0,1,8.72,8.72ZM426.25,411.6c-8.3,18.51-25.86,31.56-51.49,31.56H328.25a4.76,4.76,0,0,1-4.75-4.75V281.79a4.76,4.76,0,0,1,4.75-4.75h46.51c25.63,0,43.19,13,51.49,31.56,6.17,13.77,6.65,30.14,6.65,51.5S432.42,397.83,426.25,411.6Zm140.48,31.56H541.81a4.51,4.51,0,0,1-4.5-3.56L530,415.16c-.71-2.14-1.42-3.56-3.56-3.56H490.32c-2.14,0-2.85,1.18-3.56,3.56l-6.65,24.44a4.51,4.51,0,0,1-4.5,3.56H450.69c-3.09,0-4.75-1.43-4.75-3.56a17.76,17.76,0,0,1,.95-4.75L488.42,280.6a4.52,4.52,0,0,1,4.51-3.56h31.8a4.52,4.52,0,0,1,4.51,3.56l41.29,154.25a17.76,17.76,0,0,1,1,4.75C571.48,441.73,569.82,443.16,566.73,443.16ZM693.45,285.59l-41.29,98.48v54.34a4.77,4.77,0,0,1-4.75,4.75H623.68a4.77,4.77,0,0,1-4.75-4.75V384.07l-41.29-98.48c-1.18-2.62-1.42-3.8-1.42-5.23,0-1.66.95-3.32,3.8-3.32h26.81c2.14,0,3.56.95,4.51,3.56l22.54,59.33c.48,1.42,1,2.13,1.67,2.13s1.18-.71,1.66-2.13l22.54-59.33c1-2.61,2.37-3.56,4.51-3.56h26.82c2.84,0,3.79,1.66,3.79,3.32C694.87,281.79,694.64,283,693.45,285.59Z"/><path class="cls-1" d="M510.25,320c-.23-1.43-.47-2.14-1.18-2.14h-.95c-.71,0-.95.71-1.19,2.14l-11.15,55.76c-.24,1.66.47,2.61,1.9,2.61h21.83c1.42,0,2.13-.95,1.9-2.61Z"/></svg>