<svg id="Capa_1" data-name="Capa 1" xmlns="http://www.w3.org/2000/svg" viewBox="0 0 761.3 720.2"><defs><style>.cls-1{fill:#fff;}</style></defs><title>FULL-01</title><path class="cls-1" d="M727.18,225.49v-.16a96.07,96.07,0,0,1-96.09-96.05,13.78,13.78,0,0,0-13.83-13.86H145a13.87,13.87,0,0,0-13.87,13.86h-.4a96,96,0,0,1-96,96.05v.12a21.1,21.1,0,0,0-9.83,2.2c-2.48,1.36-4,3.19-4,5.27v254.4c0,4.11,6.19,7.47,13.87,7.47v.08a96,96,0,0,1,96,96h.4A13.84,13.84,0,0,0,145,604.78H617.26a13.83,13.83,0,0,0,13.83-13.86,96.09,96.09,0,0,1,96.09-96v-.12c7.39-.12,13.31-3.4,13.31-7.43V234.76C740.49,230.69,734.57,225.69,727.18,225.49ZM220.49,288.61c0,4.79-3.19,8.78-8,8.78h-70v47.93h63.64c4.79,0,8,3.46,8,8.26V373c0,5.06-2.93,9.06-8,9.06H142.47v65.5c0,5.06-2.93,9.05-7.72,9.05H111.58c-4.79,0-8-4-8-9.05V269.43c0-4.79,3.19-8.78,8-8.78H212.5c4.8,0,8,4,8,8.78ZM381.58,393.25c0,39.14-26.62,66.3-65.77,66.3H310c-39.15,0-66-27.16-66-66.3V269.43c0-4.79,2.93-8.78,8-8.78h22.9c5.06,0,8,4,8,8.78V396.18c0,15.71,11.18,26.63,27.16,26.63h5.85c15.71,0,26.9-10.92,26.9-26.63V269.43c0-4.79,2.93-8.78,7.72-8.78H373.6c4.79,0,8,4,8,8.78Zm144.06,54.32c0,4.79-2.93,9.05-7.73,9.05H421.26c-4.8,0-8-4-8-9.05V269.43c0-4.79,3.19-8.78,8-8.78h23.16c4.8,0,7.72,4,7.72,8.78V419.88h65.77c4.8,0,7.73,4,7.73,8.79Zm132.06,0c0,4.79-2.93,9.05-7.72,9.05H553.32c-4.79,0-8-4-8-9.05V269.43c0-4.79,3.19-8.78,8-8.78h23.17c4.79,0,7.72,4,7.72,8.78V419.88H650c4.79,0,7.72,4,7.72,8.79Z"/></svg>