<svg id="Capa_1" data-name="Capa 1" xmlns="http://www.w3.org/2000/svg" viewBox="0 0 761.3 720.2"><defs><style>.cls-1{fill:#fff;}</style></defs><title>VIP</title><path class="cls-1" d="M619.17,310.27H599a2.24,2.24,0,0,0-2.38,2.37v28.48a2.24,2.24,0,0,0,2.38,2.37h20.17c9.73,0,16.61-6.88,16.61-16.61S628.9,310.27,619.17,310.27Z"/><path class="cls-1" d="M730.39,224.23v-.15a97,97,0,0,1-97-97h0a14,14,0,0,0-14-14H142.8a14,14,0,0,0-14,14h-.41a97,97,0,0,1-97,97v.14h0c-7.72,0-14,3.37-14,7.53V488.5c0,4.16,6.26,7.53,14,7.53h0v.09a97,97,0,0,1,97,97h.41a14,14,0,0,0,14,14H619.46a14,14,0,0,0,14-14h0a97,97,0,0,1,97-97V496c7.47-.15,13.44-3.45,13.44-7.52V233.62C743.82,229.5,737.86,224.46,730.39,224.23ZM213,347.7l-31.83,31a5,5,0,0,0-1.43,4.42L187.2,427a5,5,0,0,1-7.26,5.27L140.6,411.54a5,5,0,0,0-4.65,0L96.61,432.22A5,5,0,0,1,89.35,427l7.51-43.81a5,5,0,0,0-1.44-4.42l-31.82-31a5,5,0,0,1,2.77-8.54l44-6.39a5,5,0,0,0,3.77-2.73l19.67-39.86a5,5,0,0,1,9,0L162.43,330a5,5,0,0,0,3.77,2.73l44,6.39A5,5,0,0,1,213,347.7ZM277,566a8.71,8.71,0,0,1-8.72,8.72h-2.11a8.72,8.72,0,0,1-8.72-8.72V502.57a8.73,8.73,0,0,1,8.72-8.72h2.11a8.72,8.72,0,0,1,8.72,8.72Zm0-116.21a8.72,8.72,0,0,1-8.72,8.72h-2.11a8.73,8.73,0,0,1-8.72-8.72V386.36a8.72,8.72,0,0,1,8.72-8.72h2.11a8.71,8.71,0,0,1,8.72,8.72Zm0-116.22a8.71,8.71,0,0,1-8.72,8.72h-2.11a8.72,8.72,0,0,1-8.72-8.72V270.14a8.72,8.72,0,0,1,8.72-8.71h2.11a8.71,8.71,0,0,1,8.72,8.71Zm0-116.21a8.71,8.71,0,0,1-8.72,8.72h-2.11a8.72,8.72,0,0,1-8.72-8.72V153.93a8.73,8.73,0,0,1,8.72-8.72h2.11a8.72,8.72,0,0,1,8.72,8.72Zm200.06,68L435.74,439.6a4.53,4.53,0,0,1-4.51,3.56h-31.8a4.52,4.52,0,0,1-4.51-3.56L353.39,285.35a17.76,17.76,0,0,1-.95-4.75c0-2.13,1.66-3.56,4.75-3.56H382.1a4.34,4.34,0,0,1,4.51,3.56l26.82,114.86c.24,1.42.47,2.13,1.19,2.13h.94c.72,0,.95-.71,1.19-2.13L443.8,280.6a4.36,4.36,0,0,1,4.51-3.56h24.92c3.09,0,4.75,1.43,4.75,3.56A17.76,17.76,0,0,1,477,285.35Zm48.4,157.81H501.7a4.76,4.76,0,0,1-4.74-4.75V281.79A4.76,4.76,0,0,1,501.7,277h23.73a4.77,4.77,0,0,1,4.75,4.75V438.41A4.77,4.77,0,0,1,525.43,443.16Zm94.92-66.45H599a2.24,2.24,0,0,0-2.38,2.37v59.33a4.76,4.76,0,0,1-4.74,4.75H568.15a4.77,4.77,0,0,1-4.75-4.75V281.79a4.77,4.77,0,0,1,4.75-4.75h52.2c29.67,0,49.84,20.17,49.84,49.84S650.25,376.71,620.35,376.71Z"/></svg>